<?xml version="1.0" standalone="no"?>
<!DOCTYPE svg PUBLIC "-//W3C//DTD SVG 20010904//EN"
 "http://www.w3.org/TR/2001/REC-SVG-20010904/DTD/svg10.dtd">
<svg version="1.0" xmlns="http://www.w3.org/2000/svg"
 width="700.000000pt" height="512.000000pt" viewBox="0 0 700.000000 512.000000"
 preserveAspectRatio="xMidYMid meet">

<g transform="translate(0.000000,512.000000) scale(0.100000,-0.100000)"
fill="#FFFFFF" stroke="none">
<path d="M127 3288 c10 -18 77 -133 148 -255 l130 -223 215 0 215 0 130 223
c71 122 138 237 148 255 l19 32 -512 0 -512 0 19 -32z"/>
<path d="M770 2598 c-228 -391 -419 -717 -423 -725 -7 -11 45 -13 301 -13
l309 0 194 345 c107 190 197 345 201 345 5 0 8 -119 8 -265 l0 -265 200 0 200
0 0 218 c0 262 10 308 61 295 30 -8 38 -57 45 -290 l7 -223 192 0 192 0 6 223
c3 122 10 234 16 249 15 41 44 52 73 29 23 -19 23 -21 26 -260 l3 -241 205 0
204 0 0 128 0 127 26 -45 c57 -100 159 -175 272 -199 31 -6 158 -11 312 -11
l259 0 3 158 3 157 32 -67 c72 -152 230 -247 411 -248 l52 0 0 123 c0 68 3
127 7 130 3 4 19 -14 34 -41 41 -72 113 -138 194 -178 178 -88 398 -42 532
110 42 48 85 126 98 179 l7 27 -176 0 c-97 0 -176 -4 -176 -8 0 -16 -50 -32
-98 -32 -71 0 -132 46 -132 101 0 5 119 9 295 9 l295 0 0 38 c0 158 -113 329
-265 402 -60 29 -83 34 -162 38 -171 8 -308 -60 -400 -197 l-43 -65 0 137 0
137 -65 0 -65 0 0 130 0 130 -200 0 -200 0 0 -267 0 -268 -38 60 c-101 158
-270 241 -441 216 -158 -24 -282 -111 -356 -253 l-38 -71 -35 69 c-102 194
-298 294 -492 250 -41 -9 -99 -28 -128 -41 l-54 -25 -26 20 c-45 36 -128 55
-242 54 -93 0 -111 -3 -160 -27 -31 -14 -75 -43 -99 -63 -24 -21 -46 -33 -51
-28 -4 5 -70 115 -146 244 -75 129 -140 238 -143 242 -4 4 -193 -312 -421
-704z m3895 -18 c46 -44 35 -50 -85 -50 -60 0 -110 3 -110 8 1 12 33 48 55 61
32 18 112 8 140 -19z m-1421 -66 c9 -8 16 -31 16 -50 0 -33 -1 -34 -38 -34
-59 0 -82 41 -45 82 20 22 46 23 67 2z m892 -41 c1 -46 -2 -53 -18 -53 -22 0
-60 18 -70 34 -10 14 -10 61 -1 70 4 4 25 6 48 4 l40 -3 1 -52z"/>
<path d="M5440 2885 l0 -215 66 0 c102 0 150 16 205 69 45 44 69 94 69 146 0
52 -24 102 -69 146 -55 53 -103 69 -205 69 l-66 0 0 -215z m198 60 c46 -53 13
-130 -60 -142 l-38 -6 0 93 0 93 38 -6 c22 -4 46 -17 60 -32z"/>
<path d="M5090 2885 l0 -205 55 0 55 0 0 90 0 90 40 0 40 0 0 -90 0 -90 55 0
55 0 0 205 0 205 -55 0 -55 0 0 -70 0 -70 -40 0 -40 0 0 70 0 70 -55 0 -55 0
0 -205z"/>
</g>
</svg>
